<svg xmlns="http://www.w3.org/2000/svg" height="256" width="256" xmlns:v="https://vecta.io/nano"><defs><clipPath><path d="M54.1 12.5L12.9 54.7C-2.7 70.3 23 69 32.3 74.9c4.3 2.8-13.8 6.4-10.1 10.1 3.6 3.7 21.7 7.1 25.3 10.7 3.6 3.7-7.3 7.6-3.7 11.3 3.5 3.7 11.9.2 13.4 8.6 1.1 6.2 15.4 3.1 21.8-2.2 4-3.4-6.9-3.4-3.3-7.1 9-9.1 17-4.1 20.3-12.5 1.8-4.5-13.6-7.7-9.5-10.6 9.8-6.9 45.8-10.4 29.2-27L73 12.5c-5.3-5-14-5-18.9 0zm-9.9 64.7c.9 0 30.8 4 19.3 7.1-4.4 1.2-24.6-7.1-19.3-7.1zm57.2 16.6c0 2.1 16.3 3.3 15.4-.5-1.3-6.4-13.6-5.9-15.4.5zm-69.5 11.1c3.7 3.2 9.3-.7 11.1-5.2-3.6-4.7-16.9.3-11.1 5.2zm67.5-6.7c-4.6 4.2.8 8.6 5.3 5.7 1.2-.8-.1-4.7-5.3-5.7z" /></clipPath></defs><path d="M48.178 0C21.487 0 0 21.489 0 48.18v159.643C0 234.513 21.487 256 48.178 256h159.645C234.513 256 256 234.513 256 207.822V48.18C256 21.489 234.513 0 207.822 0zm89.969 58.744c93.247.653 112.874 153.098-43.484 118.062v28.531H98.9v3.922H70.668l-.037-4.033h4.164V92.051c-8.02 3.775-12.106 9.178-15.031 15.051v10.121l-4.93 2.855-9.057-19.625c34.004-29.536 64.718-41.222 90.152-41.695l2.217-.014zm-3.395 10.918c-11.669-.082-25.092 2.976-40.09 10.27v84.195c118.049 40.229 116.284-93.93 40.09-94.465z"/></svg>