<?xml version="1.0" encoding="UTF-8" standalone="no"?>
<svg
   xmlns:dc="http://purl.org/dc/elements/1.1/"
   xmlns:cc="http://creativecommons.org/ns#"
   xmlns:rdf="http://www.w3.org/1999/02/22-rdf-syntax-ns#"
   xmlns:svg="http://www.w3.org/2000/svg"
   xmlns="http://www.w3.org/2000/svg"
   xmlns:sodipodi="http://sodipodi.sourceforge.net/DTD/sodipodi-0.dtd"
   xmlns:inkscape="http://www.inkscape.org/namespaces/inkscape"
   inkscape:version="1.0 (4035a4fb49, 2020-05-01)"
   sodipodi:docname="ko-fi.svg"
   id="svg6"
   viewBox="0 0 31.314279 24"
   height="24"
   width="31.31428"
   version="1.1">
  <metadata
     id="metadata12">
    <rdf:RDF>
      <cc:Work
         rdf:about="">
        <dc:format>image/svg+xml</dc:format>
        <dc:type
           rdf:resource="http://purl.org/dc/dcmitype/StillImage" />
        <dc:title>ko-fi</dc:title>
      </cc:Work>
    </rdf:RDF>
  </metadata>
  <defs
     id="defs10" />
  <sodipodi:namedview
     inkscape:current-layer="svg6"
     inkscape:window-maximized="1"
     inkscape:window-y="0"
     inkscape:window-x="0"
     inkscape:cy="4.6685218"
     inkscape:cx="13.322274"
     inkscape:zoom="6.2092814"
     showgrid="false"
     id="namedview8"
     inkscape:window-height="692"
     inkscape:window-width="1280"
     inkscape:pageshadow="2"
     inkscape:pageopacity="0"
     guidetolerance="10"
     gridtolerance="10"
     objecttolerance="10"
     borderopacity="1"
     bordercolor="#666666"
     pagecolor="#ffffff" />
  <title
     id="title2">ko-fi</title>
  <path
     style="fill:#4a4a4a;fill-opacity:1;stroke-width:0.896113"
     id="path4"
     d="M 29.855075,8.352375 C 28.930287,3.4703541 24.048266,2.863686 24.048266,2.863686 H 2.1831253 c -0.7240588,0 -0.812774,0.9525675 -0.812774,0.9525675 0,0 -0.097676,8.7523295 -0.024195,14.1290035 0.1971446,2.892651 3.0897954,3.191057 3.0897954,3.191057 0,0 9.8760543,-0.02777 14.2956803,-0.06004 2.913262,-0.508992 3.207186,-3.067393 3.173134,-4.462639 5.20462,0.289444 8.867928,-3.383722 7.949413,-8.2612603 z m -13.218554,4.196494 c -1.488443,1.731289 -4.792409,4.746707 -4.792409,4.746707 0,0 -0.144273,0.144274 -0.373679,0.02778 C 11.381723,17.257936 11.344978,17.21582 11.344978,17.21582 10.811791,16.688908 7.3205376,13.574917 6.5229976,12.492414 5.6779636,11.339116 5.2818819,9.267305 6.4163602,8.0584492 7.5499424,6.8540745 10.00529,6.7608787 11.629045,8.5432466 c 0,0 1.866602,-2.1282672 4.14452,-1.1479202 2.272541,0.9812435 2.189202,3.5987876 0.862956,5.1535426 z m 7.375005,0.569927 c -1.111179,0.139794 -2.010876,0.03226 -2.010876,0.03226 V 6.3647971 h 2.113929 c 0,0 2.357672,0.6586426 2.357672,3.1507318 0,2.2868781 -1.176596,3.1874711 -2.459828,3.6032671 z" />
</svg>
