<svg xmlns="http://www.w3.org/2000/svg" height="106.854" width="152.469" xmlns:v="https://vecta.io/nano"><defs><clipPath><path d="M54.1 12.5L12.9 54.7C-2.7 70.3 23 69 32.3 74.9c4.3 2.8-13.8 6.4-10.1 10.1 3.6 3.7 21.7 7.1 25.3 10.7 3.6 3.7-7.3 7.6-3.7 11.3 3.5 3.7 11.9.2 13.4 8.6 1.1 6.2 15.4 3.1 21.8-2.2 4-3.4-6.9-3.4-3.3-7.1 9-9.1 17-4.1 20.3-12.5 1.8-4.5-13.6-7.7-9.5-10.6 9.8-6.9 45.8-10.4 29.2-27L73 12.5c-5.3-5-14-5-18.9 0zm-9.9 64.7c.9 0 30.8 4 19.3 7.1-4.4 1.2-24.6-7.1-19.3-7.1zm57.2 16.6c0 2.1 16.3 3.3 15.4-.5-1.3-6.4-13.6-5.9-15.4.5zm-69.5 11.1c3.7 3.2 9.3-.7 11.1-5.2-3.6-4.7-16.9.3-11.1 5.2zm67.5-6.7c-4.6 4.2.8 8.6 5.3 5.7 1.2-.8-.1-4.7-5.3-5.7z" /></clipPath></defs><path d="M56.609 84.173c-6.604.024-12.275-3.956-14.946-8.586-1.43-2.021-4.256-2.743-4.295 0v12.665c0 5.087-1.852 9.489-5.564 13.201-3.606 3.602-8.003 5.402-13.201 5.402-5.083 0-9.485-1.801-13.197-5.406C1.805 97.74 0 93.339 0 88.251V18.603c0-3.921 1.115-7.471 3.342-10.651 2.329-3.286 5.3-5.568 8.906-6.837A18.25 18.25 0 0 1 18.603 0c5.726 0 10.497 2.226 14.312 6.679l19.04 22.098c.426.315 1.671 2.747 4.65 2.747 2.987 0 4.394-2.431 4.815-2.75L80.299 6.679C84.224 2.227 89.047 0 94.773 0c2.12 0 4.24.37 6.36 1.115 3.602 1.269 6.518 3.546 8.748 6.837 2.329 3.18 3.495 6.73 3.495 10.651v69.648c0 5.087-1.852 9.489-5.564 13.201-3.606 3.602-8.007 5.402-13.201 5.402-5.087 0-9.485-1.801-13.201-5.406-3.602-3.708-5.402-8.11-5.402-13.197V75.587c-.315-3.456-3.369-1.277-4.453 0-2.861 5.3-8.346 8.563-14.946 8.59zm79.641-52.054c-4.453 0-8.268-1.537-11.447-4.61-3.074-3.179-4.61-6.994-4.61-11.447s1.537-8.216 4.61-11.29c3.179-3.179 6.994-4.768 11.447-4.768s8.27 1.589 11.451 4.768c3.179 3.074 4.768 6.837 4.768 11.29s-1.589 8.268-4.768 11.447c-3.181 3.074-6.998 4.61-11.451 4.61zm.158 3.184c4.453 0 8.217 1.589 11.293 4.768 3.179 3.179 4.768 6.996 4.768 11.451v39.275c0 4.453-1.589 8.268-4.768 11.447-3.074 3.074-6.838 4.61-11.293 4.61-4.45 0-8.266-1.537-11.447-4.61-3.179-3.179-4.768-6.994-4.768-11.447V51.522c0-4.453 1.589-8.27 4.768-11.451s6.994-4.768 11.447-4.768z"/></svg>