<?xml version="1.0" encoding="UTF-8" standalone="no"?>
<svg
   xmlns:dc="http://purl.org/dc/elements/1.1/"
   xmlns:cc="http://creativecommons.org/ns#"
   xmlns:rdf="http://www.w3.org/1999/02/22-rdf-syntax-ns#"
   xmlns:svg="http://www.w3.org/2000/svg"
   xmlns="http://www.w3.org/2000/svg"
   xmlns:sodipodi="http://sodipodi.sourceforge.net/DTD/sodipodi-0.dtd"
   xmlns:inkscape="http://www.inkscape.org/namespaces/inkscape"
   inkscape:version="1.0 (4035a4fb49, 2020-05-01)"
   sodipodi:docname="trakteer.svg"
   id="svg4"
   version="1.1"
   height="24"
   width="27.479977">
  <metadata
     id="metadata10">
    <rdf:RDF>
      <cc:Work
         rdf:about="">
        <dc:format>image/svg+xml</dc:format>
        <dc:type
           rdf:resource="http://purl.org/dc/dcmitype/StillImage" />
        <dc:title />
      </cc:Work>
    </rdf:RDF>
  </metadata>
  <defs
     id="defs8" />
  <sodipodi:namedview
     inkscape:current-layer="svg4"
     inkscape:window-maximized="1"
     inkscape:window-y="0"
     inkscape:window-x="0"
     inkscape:cy="16.307102"
     inkscape:cx="15.645937"
     inkscape:zoom="15.918266"
     fit-margin-bottom="0"
     fit-margin-right="0"
     fit-margin-left="0"
     fit-margin-top="0"
     showgrid="false"
     id="namedview6"
     inkscape:window-height="692"
     inkscape:window-width="1280"
     inkscape:pageshadow="2"
     inkscape:pageopacity="0"
     guidetolerance="10"
     gridtolerance="10"
     objecttolerance="10"
     borderopacity="1"
     bordercolor="#666666"
     pagecolor="#ffffff"
     inkscape:document-rotation="0" />
  <g
     style="fill:#4a4a4a;fill-opacity:1"
     transform="matrix(0.00248132,0,0,-0.00248132,2.9878548,22.76177)"
     fill="#000000"
     stroke="none"
     id="g836">
    <path
       style="fill:#4a4a4a;fill-opacity:1"
       d="m 1479,8666 c -2,-2 -31,-7 -64,-10 -90,-10 -278,-60 -380,-101 C 557,8363 199,7965 60,7472 -1,7251 2,7438 2,4340 1,2582 5,1482 11,1445 16,1412 23,1369 25,1350 66,1078 231,751 442,525 706,243 1081,53 1450,13 1541,4 7106,2 7205,12 c 39,4 77,9 85,12 8,4 29,8 45,10 169,21 418,124 614,255 79,52 291,233 291,249 1,4 21,30 46,57 52,57 155,211 201,300 49,95 104,242 129,344 25,98 29,123 42,235 10,76 8,5687 -1,5751 -66,450 -266,807 -613,1093 -166,136 -431,263 -653,312 -48,10 -102,22 -121,26 -34,8 -5783,18 -5791,10 z M 4175,7335 c 198,-50 363,-195 442,-390 17,-43 30,-81 28,-83 -1,-2 -33,-10 -71,-17 -290,-61 -505,-324 -506,-619 -1,-45 3,-101 7,-125 l 7,-44 -98,6 c -274,15 -494,183 -584,447 -33,95 -37,260 -9,360 72,259 293,452 554,482 55,7 169,-2 230,-17 z m 756,-621 c 182,-53 331,-204 384,-387 34,-118 20,-273 -34,-387 l -26,-55 h -480 -480 l -23,49 c -131,276 -20,604 251,740 128,64 276,79 408,40 z m 604,-999 c 160,-75 189,-288 53,-397 -71,-58 -18,-56 -1237,-56 -919,0 -1132,3 -1163,14 -58,20 -102,58 -132,114 -75,137 10,314 164,339 19,4 538,6 1155,6 1074,-1 1122,-2 1160,-20 z m -14,-755 c 1,-8 1,-52 1,-97 v -83 l 49,-14 c 229,-68 402,-266 434,-496 9,-61 9,-2102 0,-2169 -17,-133 -90,-268 -195,-363 -76,-70 -157,-113 -256,-138 -75,-20 -113,-20 -1195,-20 -1093,0 -1118,1 -1195,21 -221,57 -386,229 -439,454 -13,59 -15,202 -15,1140 1,1010 2,1076 19,1136 54,187 158,313 327,395 l 91,45 1,87 c 1,48 1,94 1,102 1,13 139,15 1186,15 1046,0 1185,-2 1186,-15 z"
       id="path832" />
    <path
       style="fill:#4a4a4a;fill-opacity:1"
       d="m 3790,3963 c -146,-37 -282,-148 -337,-273 -5,-14 -15,-36 -21,-50 -34,-80 -36,-227 -3,-330 43,-138 68,-168 511,-613 l 415,-417 383,382 c 390,390 452,459 503,560 65,128 75,305 26,426 -121,294 -455,410 -737,255 -68,-37 -139,-89 -153,-110 -12,-19 -31,-16 -53,8 -52,57 -211,144 -301,165 -55,12 -180,11 -233,-3 z"
       id="path834" />
  </g>
</svg>
