<?xml version="1.0" encoding="UTF-8" standalone="no"?>
<svg
   xmlns:dc="http://purl.org/dc/elements/1.1/"
   xmlns:cc="http://creativecommons.org/ns#"
   xmlns:rdf="http://www.w3.org/1999/02/22-rdf-syntax-ns#"
   xmlns:svg="http://www.w3.org/2000/svg"
   xmlns="http://www.w3.org/2000/svg"
   xmlns:sodipodi="http://sodipodi.sourceforge.net/DTD/sodipodi-0.dtd"
   xmlns:inkscape="http://www.inkscape.org/namespaces/inkscape"
   width="31.314283"
   height="24"
   version="1.1"
   id="svg4"
   sodipodi:docname="youtube-play.svg"
   inkscape:version="1.0 (4035a4fb49, 2020-05-01)">
  <metadata
     id="metadata10">
    <rdf:RDF>
      <cc:Work
         rdf:about="">
        <dc:format>image/svg+xml</dc:format>
        <dc:type
           rdf:resource="http://purl.org/dc/dcmitype/StillImage" />
        <dc:title />
      </cc:Work>
    </rdf:RDF>
  </metadata>
  <defs
     id="defs8" />
  <sodipodi:namedview
     inkscape:document-rotation="0"
     pagecolor="#ffffff"
     bordercolor="#666666"
     borderopacity="1"
     objecttolerance="10"
     gridtolerance="10"
     guidetolerance="10"
     inkscape:pageopacity="0"
     inkscape:pageshadow="2"
     inkscape:window-width="1280"
     inkscape:window-height="692"
     id="namedview6"
     showgrid="false"
     fit-margin-top="0"
     fit-margin-left="0"
     fit-margin-right="0"
     fit-margin-bottom="0"
     inkscape:zoom="12.099662"
     inkscape:cx="12.183778"
     inkscape:cy="13.012297"
     inkscape:window-x="0"
     inkscape:window-y="0"
     inkscape:window-maximized="1"
     inkscape:current-layer="svg4" />
  <path
     d="m 12.705685,15.701357 7.7218,-3.98854 -7.7218,-4.0363798 z m 2.9515,-13.7524598 c 6.0147,0 10.0033,0.28717 10.0033,0.28717 0.5585,0.0639 1.7869,0.0639 2.8717,1.21252 0,0 0.8775,0.86152 1.1327,2.83984 0.3033,2.31335 0.2873,4.6266898 0.2873,4.6266898 v 2.16977 c 0,0 0.016,2.31334 -0.2873,4.62669 -0.2552,1.96236 -1.1327,2.83984 -1.1327,2.83984 -1.0848,1.13274 -2.3132,1.13274 -2.8717,1.19655 0,0 -3.9886,0.30314 -10.0033,0.30314 -7.4345002,-0.0638 -9.7161002,-0.28719 -9.7161002,-0.28719 -0.6382,-0.11169 -2.074,-0.0797 -3.1588,-1.2125 0,0 -0.8775,-0.87748 -1.1327,-2.83984 -0.3031,-2.31335 -0.2873,-4.62669 -0.2873,-4.62669 v -2.16977 c 0,0 -0.016,-2.3133398 0.2873,-4.6266898 0.2552,-1.97832 1.1327,-2.83984 1.1327,-2.83984 1.0848,-1.1487 2.3132,-1.1487 2.8717,-1.21252 0,0 3.9886,-0.28717 10.0032002,-0.28717 z"
     id="path2"
     style="stroke-width:0.0159542;fill:#4a4a4a;fill-opacity:1" />
</svg>
